# File created by Blade
# Date/Time:  Tue Sep 30 19:36:22 2014
#---------------------------------------------------------
:version 1.10
:name HOM
:units
  mass 1.0
  length 1.000000
  angle deg
:documentation
     Acclaim Skeleton File
:root
   axis xyz
   order TX TY TZ RX RY RZ
   position 0.000000 0.000000 0.000000
   orientation 0 0 0
:bonedata
   begin
      id 1
      name Spine_dum
      direction 0.000000 1.000000 0.000000
      length 3.241213
      axis 0.0 0.0 0.0 xyz
   end
   begin
      id 2
      name LeftUpLeg_dum
      direction 1.000000 0.000000 0.000000
      length 3.434019
      axis 0.0 0.0 0.0 xyz
   end
   begin
      id 3
      name RightUpLeg_dum
      direction -1.000000 0.000000 0.000000
      length 3.434019
      axis 0.0 0.0 0.0 xyz
   end
   begin
      id 4
      name Spine
      direction 0.000000 1.000000 0.000000
      length 0.000000
      axis 0.0 0.0 0.0 xyz
      dof rx ry rz
   end
   begin
      id 5
      name Spine_dum1
      direction 0.000000 1.000000 0.000000
      length 18.382958
      axis 0.0 0.0 0.0 xyz
   end
   begin
      id 6
      name Spine_dum2
      direction 0.000000 1.000000 0.000000
      length 12.828261
      axis 0.0 0.0 0.0 xyz
   end
   begin
      id 7
      name Spine_dum3
      direction 0.000000 1.000000 0.000000
      length 12.828261
      axis 0.0 0.0 0.0 xyz
   end
   begin
      id 8
      name Head
      direction 0.000000 1.000000 0.000000
      length 4.527550
      axis 0.0 0.0 0.0 xyz
      dof rx ry rz
   end
   begin
      id 9
      name LeftShoulder
      direction 1.000000 0.000000 0.000000
      length 7.748055
      axis 0.0 0.0 -90.0 xyz
      dof rx ry rz
   end
   begin
      id 10
      name LeftArm
      direction 1.000000 0.000000 0.000000
      length 10.635614
      axis 0.0 0.0 -90.0 xyz
      dof rx ry rz
   end
   begin
      id 11
      name LeftForeArm
      direction 1.000000 0.000000 0.000000
      length 8.346755
      axis 0.0 0.0 -90.0 xyz
      dof ry rz rx
   end
   begin
      id 12
      name LeftHand
      direction 0.000000 0.000000 0.000000
      length 0.000000
      axis 0.0 0.0 -90.0 xyz
      dof rx ry rz
   end
   begin
      id 13
      name LeftHand_dum1
      direction 0.000000 0.000000 0.000000
      length 0.000000
      axis 0.0 0.0 -90.0 xyz
   end
   begin
      id 14
      name LeftHand_dum2
      direction 1.000000 0.000000 0.000000
      length 3.937000
      axis 0.0 0.0 -90.0 xyz
   end
   begin
      id 15
      name LeftHandThumb1
      direction 0.000000 0.000000 1.000000
      length 3.937000
      axis 0.0 0.0 -90.0 xyz
      dof rx rz ry
   end
   begin
      id 16
      name RightShoulder
      direction -1.000000 0.000000 0.000000
      length 7.748055
      axis 0.0 0.0 90.0 xyz
      dof rx ry rz
   end
   begin
      id 17
      name RightArm
      direction -1.000000 0.000000 0.000000
      length 10.635614
      axis 0.0 0.0 90.0 xyz
      dof rx ry rz
   end
   begin
      id 18
      name RightForeArm
      direction -1.000000 0.000000 0.000000
      length 8.346755
      axis 0.0 0.0 90.0 xyz
      dof ry rz rx
   end
   begin
      id 19
      name RightHand
      direction 0.000000 0.000000 0.000000
      length 0.000000
      axis 0.0 0.0 90.0 xyz
      dof rx ry rz
   end
   begin
      id 20
      name RightHand_dum1
      direction 0.000000 0.000000 0.000000
      length 0.000000
      axis 0.0 0.0 90.0 xyz
   end
   begin
      id 21
      name RightHand_dum2
      direction -1.000000 0.000000 0.000000
      length 3.937000
      axis 0.0 0.0 90.0 xyz
   end
   begin
      id 22
      name RightHandThumb1
      direction 0.000000 0.000000 1.000000
      length 3.937000
      axis 0.0 0.0 90.0 xyz
      dof rx rz ry
   end
   begin
      id 23
      name LeftUpLeg
      direction 0.000000 -1.000000 0.000000
      length 15.713025
      axis 0.0 0.0 0.0 xyz
      dof rx ry rz
   end
   begin
      id 24
      name LeftLeg
      direction 0.000000 -1.000000 0.000000
      length 14.435119
      axis 0.0 0.0 0.0 xyz
      dof rx ry rz
   end
   begin
      id 25
      name LeftFoot
      direction 0.000000 -0.258819 0.965926
      length 4.938895
      axis 15.0 0.0 0.0 xyz
      dof rx ry rz
   end
   begin
      id 26
      name LeftToeBase
      direction 0.000000 0.000000 1.000000
      length 2.952750
      axis 0.0 0.0 0.0 xyz
      dof rx ry rz
   end
   begin
      id 27
      name RightUpLeg
      direction 0.000000 -1.000000 0.000000
      length 15.713025
      axis 0.0 0.0 0.0 xyz
      dof rx ry rz
   end
   begin
      id 28
      name RightLeg
      direction 0.000000 -1.000000 0.000000
      length 14.435119
      axis 0.0 0.0 0.0 xyz
      dof rx ry rz
   end
   begin
      id 29
      name RightFoot
      direction 0.000000 -0.258819 0.965926
      length 4.938895
      axis 15.0 0.0 0.0 xyz
      dof rx ry rz
   end
   begin
      id 30
      name RightToeBase
      direction 0.000000 0.000000 1.000000
      length 2.952750
      axis 0.0 0.0 0.0 xyz
      dof rx ry rz
   end
:hierarchy
   begin
      root Spine_dum LeftUpLeg_dum RightUpLeg_dum
      Spine_dum Spine
      LeftUpLeg_dum LeftUpLeg
      RightUpLeg_dum RightUpLeg
      Spine Spine_dum1 Spine_dum2 Spine_dum3
      Spine_dum1 Head
      Spine_dum2 LeftShoulder
      Spine_dum3 RightShoulder
      LeftShoulder LeftArm
      LeftArm LeftForeArm
      LeftForeArm LeftHand
      LeftHand LeftHand_dum1 LeftHand_dum2
      LeftHand_dum1 LeftHandThumb1
      RightShoulder RightArm
      RightArm RightForeArm
      RightForeArm RightHand
      RightHand RightHand_dum1 RightHand_dum2
      RightHand_dum1 RightHandThumb1
      LeftUpLeg LeftLeg
      LeftLeg LeftFoot
      LeftFoot LeftToeBase
      RightUpLeg RightLeg
      RightLeg RightFoot
      RightFoot RightToeBase
   end

# File created by Blade
# Date/Time:  Tue Sep 23 19:18:47 2014
# Frame Rate: 120.000 fps
#------------------------------------------------------
:FULLY-SPECIFIED
:DEGREES
1
root -1.477401 32.366599 1.601091 37.421509 4.187279 -0.261772
Spine -40.763082 -5.882421 4.796488
Head 4.367490 -0.980994 -5.033800
LeftShoulder -16.932631 39.416532 19.172083
LeftArm 69.336876 -39.847458 -80.956996
LeftForeArm -10.027761 -0.000000 46.022501
LeftHand -58.489991 -0.000000 11.628124
LeftHandThumb1 -26.253704 0.000000 33.147579
RightShoulder -14.769426 -40.367816 -25.728046
RightArm 47.394637 26.643296 54.925393
RightForeArm 20.293704 -0.000000 -6.648063
RightHand 10.132550 0.000000 8.370139
RightHandThumb1 -24.326973 -0.000000 -32.862282
LeftUpLeg -31.833499 0.764832 2.545322
LeftLeg -3.038463 -0.000000 0.000000
LeftFoot -3.651373 -0.750175 -1.514690
LeftToeBase 2.009165 -0.000000 -0.000000
RightUpLeg -29.903770 -8.766644 3.423356
RightLeg -5.440336 -0.000000 0.000000
RightFoot -6.155235 -6.460231 13.697288
RightToeBase 12.269845 -0.000000 -0.000000
2
root -1.456561 32.367555 1.595327 37.467108 4.206257 -0.278079
Spine -40.793900 -5.932889 4.849705
Head 4.385021 -0.981322 -5.021167
LeftShoulder -16.898116 39.436065 19.194147
LeftArm 69.502157 -39.705222 -80.940856
LeftForeArm -10.091952 -0.000000 46.130216
LeftHand -58.385219 0.000000 11.704065
LeftHandThumb1 -26.253704 0.000000 33.147579
RightShoulder -14.761772 -40.368834 -25.700941
RightArm 47.483940 26.646548 54.892210
RightForeArm 20.168558 -0.000000 -6.668779
RightHand 10.287524 -0.000000 8.542906
RightHandThumb1 -24.326973 -0.000000 -32.862282
LeftUpLeg -31.879123 0.803808 2.501233
LeftLeg -3.068423 -0.000000 0.000000
LeftFoot -3.637573 -0.844024 -1.538566
LeftToeBase 2.078704 -0.000000 -0.000000
RightUpLeg -29.971245 -8.769030 3.415901
RightLeg -5.416254 -0.000000 0.000000
RightFoot -6.134481 -6.502458 13.729309
RightToeBase 12.192655 -0.000000 -0.000000
3
root -1.436372 32.368499 1.592132 37.486406 4.201379 -0.300035
Spine -40.803591 -5.953011 4.878993
Head 4.416310 -1.005947 -5.004600
LeftShoulder -16.831318 39.437630 19.238511
LeftArm 69.618491 -39.563558 -80.913365
LeftForeArm -10.193090 -0.000000 46.312373
LeftHand -58.422425 -0.000000 11.525708
LeftHandThumb1 -26.253704 0.000000 33.147579
RightShoulder -14.727954 -40.342309 -25.708946
RightArm 47.514173 26.657230 54.908535
RightForeArm 20.099966 -0.000000 -6.641270
RightHand 10.194737 -0.000000 8.471981
RightHandThumb1 -24.326973 -0.000000 -32.862282
LeftUpLeg -31.883024 0.730871 2.537306
LeftLeg -3.102304 -0.000000 0.000000
LeftFoot -3.654846 -0.767059 -1.605815
LeftToeBase 2.160498 -0.000000 -0.000000
RightUpLeg -30.005465 -8.741297 3.390280
RightLeg -5.396143 -0.000000 0.000000
RightFoot -6.133541 -6.565195 13.751305
RightToeBase 12.258286 -0.000000 -0.000000
4
root -1.414030 32.369489 1.588023 37.511958 4.190909 -0.315884
Spine -40.814965 -5.968693 4.908163
Head 4.438225 -1.027091 -4.990081
LeftShoulder -16.792270 39.464900 19.253845
LeftArm 69.783535 -39.420564 -80.887155
LeftForeArm -10.320678 -0.000000 46.423436
LeftHand -58.394320 -0.000000 11.431639
LeftHandThumb1 -26.253704 0.000000 33.147579
RightShoulder -14.677868 -40.284563 -25.747819
RightArm 47.505346 26.657373 54.924730
RightForeArm 20.170373 -0.000000 -6.594057
RightHand 10.098984 -0.000000 8.347697
RightHandThumb1 -24.326973 -0.000000 -32.862282
LeftUpLeg -31.898171 0.704643 2.532909
LeftLeg -3.128913 -0.000000 0.000000
LeftFoot -3.666293 -0.760717 -1.647432
LeftToeBase 2.251531 -0.000000 -0.000000
RightUpLeg -30.060168 -8.739665 3.369513
RightLeg -5.357184 -0.000000 0.000000
RightFoot -6.119545 -6.587325 13.789367
RightToeBase 12.217169 -0.000000 -0.000000
5
root -1.391839 32.370894 1.583385 37.543836 4.167888 -0.341512
Spine -40.827733 -5.970594 4.937928
Head 4.452506 -1.024194 -4.967086
LeftShoulder -16.699822 39.402233 19.345877
LeftArm 69.827575 -39.280164 -80.886633
LeftForeArm -10.369469 -0.000000 46.582406
LeftHand -58.427898 -0.000000 11.294789
LeftHandThumb1 -26.253704 0.000000 33.147579
RightShoulder -14.648160 -40.247497 -25.749891
RightArm 47.478618 26.648388 54.850968
RightForeArm 20.217055 -0.000000 -6.556908
RightHand 10.067655 -0.000000 8.427318
RightHandThumb1 -24.326973 -0.000000 -32.862282
LeftUpLeg -31.926304 0.712868 2.516678
LeftLeg -3.140853 -0.000000 0.000000
LeftFoot -3.682702 -0.788635 -1.691026
LeftToeBase 2.321473 -0.000000 -0.000000
RightUpLeg -30.126257 -8.705598 3.341187
RightLeg -5.308531 -0.000000 0.000000
RightFoot -6.116779 -6.638896 13.808524
RightToeBase 12.200016 -0.000000 -0.000000
6
root -1.370327 32.372328 1.579596 37.582434 4.142594 -0.363454
Spine -40.852127 -5.991720 4.983006
Head 4.462990 -1.002929 -4.950526
LeftShoulder -16.653277 39.345157 19.406523
LeftArm 69.832686 -39.139310 -80.810342
LeftForeArm -10.442393 -0.000000 46.715747
LeftHand -58.439547 -0.000000 11.151111
LeftHandThumb1 -26.253704 0.000000 33.147579
RightShoulder -14.616903 -40.265411 -25.769326
RightArm 47.538929 26.660339 54.799593
RightForeArm 20.067589 -0.000000 -6.592566
RightHand 10.156916 -0.000000 8.589024
RightHandThumb1 -24.326973 -0.000000 -32.862282
LeftUpLeg -31.956370 0.725291 2.495004
LeftLeg -3.167245 -0.000000 0.000000
LeftFoot -3.665786 -0.849845 -1.751879
LeftToeBase 2.313293 -0.000000 -0.000000
RightUpLeg -30.206099 -8.706226 3.330942
RightLeg -5.247073 -0.000000 0.000000
RightFoot -6.110344 -6.638997 13.838278
RightToeBase 12.207620 -0.000000 -0.000000
